<svg viewBox="350 238.8366 380 105.3267" width="5000" height="1385.8776315789473" xmlns="http://www.w3.org/2000/svg" xmlns:xlink="http://www.w3.org/1999/xlink" preserveAspectRatio="none"><defs></defs><style>.aD6z1nYkhcolor {fill:#FFFFFF;fill-opacity:1;}.aD6z1nYkhstrokeColor-str {stroke:#D9D9D9;stroke-opacity:1;}.aeGTWkAZcdfillColor {fill:#FFFFFF;fill-opacity:1;}.aeGTWkAZcdstrokeColor-str {stroke:#D9D9D9;stroke-opacity:1;}</style><g opacity="0.2" transform="rotate(0 350 238.8366)">
<svg width="380" height="105.3267" x="350" y="238.8366" version="1.1" preserveAspectRatio="none" viewBox="0 0 380 105.3267">
  <defs><rect x="0" y="0" width="380" height="105.3267" rx="0px" ry="0px" id="id-eGTWkAZcd"></rect></defs><use class="aeGTWkAZcdfillColor aeGTWkAZcdstrokeColor-str" style="stroke-width:0;" xlink:href="#id-eGTWkAZcd"></use>
</svg>
</g><g opacity="1" transform="rotate(0 359.9365 246.7858)">
<svg width="360.127" height="89.4283" x="359.9365" y="246.7858" version="1.1" preserveAspectRatio="none" viewBox="2.8 -32.4 132.07999999999998 32.8">
  <g transform="matrix(1 0 0 1 0 0)" class="aD6z1nYkhcolor"><path id="id-D6z1nYkh7" d="M2.80 0L2.80-32.40L14.52-32.40L14.52-30.04L5.88-30.04L5.88-17.88L12.92-17.88L12.92-15.64L5.88-15.64L5.88-2.28L14.60-2.28L14.60 0L2.80 0Z M20.76 0L20.76-32.40L27.80-32.40Q32.60-32.40 34.60-29.94Q36.60-27.48 36.60-22.88L36.60-22.88L36.60-10Q36.60-5.16 34.66-2.58Q32.72 0 28.08 0L28.08 0L20.76 0ZM23.80-2.28L27.88-2.28Q30.32-2.28 31.54-3.30Q32.76-4.32 33.12-6.02Q33.48-7.72 33.48-10.48L33.48-10.48L33.48-22.56Q33.48-25.20 33.04-26.78Q32.60-28.36 31.36-29.20Q30.12-30.04 27.76-30.04L27.76-30.04L23.80-30.04L23.80-2.28Z M51.52 0.40Q46.84 0.40 45.04-1.98Q43.24-4.36 43.24-8.84L43.24-8.84L43.24-32.40L46.20-32.40L46.20-8.76Q46.20-5.56 47.34-3.80Q48.48-2.04 51.52-2.04L51.52-2.04Q54.44-2.04 55.64-3.82Q56.84-5.60 56.84-8.76L56.84-8.76L56.84-32.40L59.76-32.40L59.76-8.84Q59.76-4.44 57.90-2.02Q56.04 0.40 51.52 0.40L51.52 0.40Z M67.08 0L67.08-32.40L78.72-32.40L78.72-30.12L70.12-30.12L70.12-17.92L77.28-17.92L77.28-15.68L70.12-15.68L70.12 0L67.08 0Z M84.52 0L84.52-32.40L87.56-32.40L87.56-2.28L96.76-2.28L96.76 0L84.52 0Z M101.76 0L101.76-32.40L113.48-32.40L113.48-30.04L104.84-30.04L104.84-17.88L111.88-17.88L111.88-15.64L104.84-15.64L104.84-2.28L113.56-2.28L113.56 0L101.76 0Z M117.44 0L124.44-16.88L117.52-32.40L120.36-32.40L126.16-19.48L131.72-32.40L134.64-32.40L127.48-16.52L134.88 0L131.96 0L125.80-13.68L120.36 0L117.44 0Z"/></g>
</svg>
</g></svg>